<?xml version="1.0" encoding="UTF-8"?>
<svg xmlns="http://www.w3.org/2000/svg" xmlns:xlink="http://www.w3.org/1999/xlink" width="36px" height="36px" viewBox="0 0 36 36" version="1.1">
<defs>
<radialGradient id="radial0" gradientUnits="userSpaceOnUse" cx="0.5" cy="0.5" fx="0.5" fy="0.5" r="1" gradientTransform="matrix(36,0,0,36,0,0)">
<stop offset="0" style="stop-color:rgb(100%,100%,100%);stop-opacity:1;"/>
<stop offset="1" style="stop-color:rgb(40%,40%,40%);stop-opacity:1;"/>
</radialGradient>
</defs>
<g id="surface1">
<path style=" stroke:none;fill-rule:nonzero;fill:url(#radial0);" d="M 9 0 L 27 0 C 31.96875 0 36 4.03125 36 9 L 36 27 C 36 31.96875 31.96875 36 27 36 L 9 36 C 4.03125 36 0 31.96875 0 27 L 0 9 C 0 4.03125 4.03125 0 9 0 Z M 9 0 "/>
<path style=" stroke:none;fill-rule:evenodd;fill:rgb(13.725491%,13.725491%,13.725491%);fill-opacity:1;" d="M 18 7.171875 C 18.640625 7.171875 19.160156 7.691406 19.160156 8.332031 L 19.160156 27.667969 C 19.160156 28.308594 18.640625 28.828125 18 28.828125 C 17.359375 28.828125 16.839844 28.308594 16.839844 27.667969 L 16.839844 8.332031 C 16.839844 7.691406 17.359375 7.171875 18 7.171875 Z M 27.28125 10.265625 C 27.921875 10.265625 28.441406 10.785156 28.441406 11.425781 L 28.441406 24.574219 C 28.441406 25.214844 27.921875 25.734375 27.28125 25.734375 C 26.640625 25.734375 26.121094 25.214844 26.121094 24.574219 L 26.121094 11.425781 C 26.121094 10.785156 26.640625 10.265625 27.28125 10.265625 Z M 13.359375 11.8125 C 14 11.8125 14.519531 12.332031 14.519531 12.972656 L 14.519531 23.027344 C 14.519531 23.667969 14 24.1875 13.359375 24.1875 C 12.71875 24.1875 12.199219 23.667969 12.199219 23.027344 L 12.199219 12.972656 C 12.199219 12.332031 12.71875 11.8125 13.359375 11.8125 Z M 22.640625 13.359375 C 23.28125 13.359375 23.800781 13.878906 23.800781 14.519531 L 23.800781 21.480469 C 23.800781 22.121094 23.28125 22.640625 22.640625 22.640625 C 22 22.640625 21.480469 22.121094 21.480469 21.480469 L 21.480469 14.519531 C 21.480469 13.878906 22 13.359375 22.640625 13.359375 Z M 8.71875 14.90625 C 9.359375 14.90625 9.878906 15.425781 9.878906 16.066406 L 9.878906 19.933594 C 9.878906 20.574219 9.359375 21.09375 8.71875 21.09375 C 8.078125 21.09375 7.558594 20.574219 7.558594 19.933594 L 7.558594 16.066406 C 7.558594 15.425781 8.078125 14.90625 8.71875 14.90625 Z M 8.71875 14.90625 "/>
</g>
</svg>
